<?xml version="1.0" encoding="utf-8"?>
<!-- Generator: Adobe Illustrator 24.1.0, SVG Export Plug-In . SVG Version: 6.00 Build 0)  -->
<svg version="1.1" id="Layer_1_8_" xmlns="http://www.w3.org/2000/svg" xmlns:xlink="http://www.w3.org/1999/xlink" x="0px" y="0px"
	 viewBox="0 0 48 48" style="enable-background:new 0 0 48 48;" xml:space="preserve">
<style type="text/css">
	.st0{fill:url(#SVGID_1_);}
</style>
<linearGradient id="SVGID_1_" gradientUnits="userSpaceOnUse" x1="10.5714" y1="10.5713" x2="37.4288" y2="37.4287">
	<stop  offset="0" style="stop-color:#FC92C3"/>
	<stop  offset="0.5" style="stop-color:#C2A2D5"/>
	<stop  offset="1" style="stop-color:#8E85D5"/>
</linearGradient>
<path class="st0" d="M24,5C13.524,5,5,13.523,5,24s8.523,19,19,19s19-8.523,19-19S34.477,5,24,5z M32,38.992
	C29.614,40.27,26.891,41,24,41s-5.614-0.73-8-2.008V31c0-1.512,0.852-2.814,2.092-3.494l5.201,5.201C23.488,32.902,23.744,33,24,33
	s0.512-0.098,0.707-0.293l5.201-5.201C31.148,28.186,32,29.488,32,31V38.992z M24,25c-3.309,0-6.001-2.691-6.001-6s2.692-6,6.001-6
	s6,2.691,6,6S27.309,25,24,25z M27.586,27L24,30.586L20.414,27H27.586z M34,37.717V31c0-2.915-2.091-5.349-4.851-5.887
	C30.89,23.644,32,21.45,32,19c0-4.411-3.589-8-8-8c-4.412,0-8.001,3.589-8.001,8c0,2.451,1.11,4.645,2.851,6.113
	C16.09,25.651,14,28.085,14,31v6.717C9.766,34.622,7,29.634,7,24c0-9.374,7.626-17,17-17s17,7.626,17,17
	C41,29.634,38.234,34.622,34,37.717z"/>
</svg>
